<svg width="2048" height="2048" viewBox="0 0 2048 2048" fill="none" xmlns="http://www.w3.org/2000/svg">
<path d="M1521 717.543L1615 622.056C1296.26 303.312 751.743 276.18 433 594.924L517 700.043C758.5 432.543 1273 443.543 1521 717.543Z" fill="#4338CA" stroke="#4338CA" stroke-width="81.73" stroke-linecap="square" stroke-linejoin="round"/>
<path d="M1153.92 1011.63C1153.92 972.69 1142.62 944.429 1120.03 926.844C1098.69 908.003 1069.19 898.583 1031.53 898.583C1006.43 898.583 981.322 901.723 956.218 908.004C932.368 914.284 911.657 923.704 894.084 936.265V1590.04C881.531 1593.81 861.448 1597.58 833.833 1601.35C807.473 1605.12 779.858 1607 750.987 1607C723.372 1607 698.268 1605.12 675.674 1601.35C654.335 1597.58 636.134 1590.04 621.071 1578.74C606.008 1567.43 594.084 1552.36 585.297 1533.52C577.766 1513.42 574 1487.67 574 1456.27V891.047C574 857.133 580.904 829.5 594.711 808.147C609.774 786.794 629.858 767.325 654.962 749.74C697.64 719.595 750.987 695.102 815.004 676.261C880.276 657.42 952.452 648 1031.53 648C1173.37 648 1282.58 679.401 1359.15 742.204C1435.72 803.751 1474 889.791 1474 1000.32V1590.04C1461.45 1593.81 1441.36 1597.58 1413.75 1601.35C1387.39 1605.12 1359.77 1607 1330.9 1607C1303.29 1607 1278.18 1605.12 1255.59 1601.35C1234.25 1597.58 1216.05 1590.04 1200.99 1578.74C1185.92 1567.43 1174 1552.36 1165.21 1533.52C1157.68 1513.42 1153.92 1487.67 1153.92 1456.27V1011.63Z" fill="white"/>
<circle cx="1465" cy="1529" r="140" fill="#4338CA" stroke="black" stroke-width="20"/>
</svg>
